{"title":"Body of Lies.2008.SWESUB.DVDRip.XviD.-Zen_Bud","uid":5566434,"size":1475328042,"categoryP":"video","categoryS":"movies","magnet":"?xt=urn:btih:287018418a8c03adbdd1a1210b6f084beea73c76&amp;dn=Body+of+Lies.2008.SWESUB.DVDRip.XviD.-Zen_Bud&amp;tr=udp%3A%2F%2Ftracker.openbittorrent.com%3A80&amp;tr=udp%3A%2F%2Fopen.demonii.com%3A1337&amp;tr=udp%3A%2F%2Ftracker.coppersurfer.tk%3A6969&amp;tr=udp%3A%2F%2Fexodus.desync.com%3A6969","seeders":0,"leechers":0,"uploader":"Zen_Bud","files":-1,"time":1274000863,"description":"General\nComplete name                    : Body of Lies.avi\nFormat                           : AVI\nFile size                        : 1.37 GiB\nDuration                         : 2h 8mn\nOverall bit rate                 : 1 533 Kbps\n\nVideo\nID                               : 0\nFormat                           : MPEG-4 Visual\nCodec ID/Hint                    : XviD\nDuration                         : 2h 8mn\nBit rate                         : 1 360 Kbps\nWidth                            : 720 pixels\nHeight                           : 428 pixels\nDisplay aspect ratio             : 2.35:1\nResolution                       : 8 bits\nColorimetry                      : 4:2:0\nScan type                        : Progressive\nBits/(Pixel*Frame)               : 0.177\nStream size                      : 1.22 GiB (89%)\nWriting library                  : XviD 1.1.2 (UTC 2006-11-01)\n\nAudio\nID                               : 1\nFormat                           : MPEG Audio\nMode                             : Joint stereo\nCodec ID/Hint                    : MP3\nDuration                         : 2h 8mn\nBit rate                         : 160 Kbps\nChannel(s)                       : 2 channels\nSampling rate                    : 48.0 KHz\nStream size                      : 147 MiB (10%)\nWriting library                  : LAME3.98\n\n","torrent":{"xt":"urn:btih:287018418a8c03adbdd1a1210b6f084beea73c76","amp;dn":"Body+of+Lies.2008.SWESUB.DVDRip.XviD.-Zen_Bud","amp;tr":["udp%3A%2F%2Ftracker.openbittorrent.com%3A80","udp%3A%2F%2Fopen.demonii.com%3A1337","udp%3A%2F%2Ftracker.coppersurfer.tk%3A6969","udp%3A%2F%2Fexodus.desync.com%3A6969"],"infoHash":"287018418a8c03adbdd1a1210b6f084beea73c76","infoHashBuffer":{"type":"Buffer","data":[40,112,24,65,138,140,3,173,189,209,161,33,11,111,8,75,238,167,60,118]},"announce":[],"urlList":[]}}